%TF.GenerationSoftware,KiCad,Pcbnew,7.0.7*%
%TF.CreationDate,2023-09-23T00:26:09-07:00*%
%TF.ProjectId,getting-started,67657474-696e-4672-9d73-746172746564,rev?*%
%TF.SameCoordinates,Original*%
%TF.FileFunction,Legend,Top*%
%TF.FilePolarity,Positive*%
%FSLAX46Y46*%
G04 Gerber Fmt 4.6, Leading zero omitted, Abs format (unit mm)*
G04 Created by KiCad (PCBNEW 7.0.7) date 2023-09-23 00:26:09*
%MOMM*%
%LPD*%
G01*
G04 APERTURE LIST*
%ADD10C,0.150000*%
%ADD11C,0.120000*%
G04 APERTURE END LIST*
D10*
X129756992Y-122457237D02*
X128756992Y-122457237D01*
X128756992Y-122457237D02*
X128756992Y-122219142D01*
X128756992Y-122219142D02*
X128804611Y-122076285D01*
X128804611Y-122076285D02*
X128899849Y-121981047D01*
X128899849Y-121981047D02*
X128995087Y-121933428D01*
X128995087Y-121933428D02*
X129185563Y-121885809D01*
X129185563Y-121885809D02*
X129328420Y-121885809D01*
X129328420Y-121885809D02*
X129518896Y-121933428D01*
X129518896Y-121933428D02*
X129614134Y-121981047D01*
X129614134Y-121981047D02*
X129709373Y-122076285D01*
X129709373Y-122076285D02*
X129756992Y-122219142D01*
X129756992Y-122219142D02*
X129756992Y-122457237D01*
X129756992Y-120933428D02*
X129756992Y-121504856D01*
X129756992Y-121219142D02*
X128756992Y-121219142D01*
X128756992Y-121219142D02*
X128899849Y-121314380D01*
X128899849Y-121314380D02*
X128995087Y-121409618D01*
X128995087Y-121409618D02*
X129042706Y-121504856D01*
X148183333Y-126174819D02*
X147850000Y-125698628D01*
X147611905Y-126174819D02*
X147611905Y-125174819D01*
X147611905Y-125174819D02*
X147992857Y-125174819D01*
X147992857Y-125174819D02*
X148088095Y-125222438D01*
X148088095Y-125222438D02*
X148135714Y-125270057D01*
X148135714Y-125270057D02*
X148183333Y-125365295D01*
X148183333Y-125365295D02*
X148183333Y-125508152D01*
X148183333Y-125508152D02*
X148135714Y-125603390D01*
X148135714Y-125603390D02*
X148088095Y-125651009D01*
X148088095Y-125651009D02*
X147992857Y-125698628D01*
X147992857Y-125698628D02*
X147611905Y-125698628D01*
X149135714Y-126174819D02*
X148564286Y-126174819D01*
X148850000Y-126174819D02*
X148850000Y-125174819D01*
X148850000Y-125174819D02*
X148754762Y-125317676D01*
X148754762Y-125317676D02*
X148659524Y-125412914D01*
X148659524Y-125412914D02*
X148564286Y-125460533D01*
D11*
%TO.C,D1*%
X126887173Y-119159143D02*
X123797173Y-119159143D01*
X125341711Y-124709142D02*
G75*
G03*
X126887003Y-119159144I462J2989999D01*
G01*
X123797343Y-119159143D02*
G75*
G03*
X125342635Y-124709143I1544830J-2560000D01*
G01*
X127842173Y-121719143D02*
G75*
G03*
X127842173Y-121719143I-2500000J0D01*
G01*
%TO.C,R1*%
X143040000Y-123000000D02*
X143730000Y-123000000D01*
X143730000Y-121280000D02*
X143730000Y-124720000D01*
X143730000Y-124720000D02*
X152970000Y-124720000D01*
X152970000Y-121280000D02*
X143730000Y-121280000D01*
X152970000Y-124720000D02*
X152970000Y-121280000D01*
X153660000Y-123000000D02*
X152970000Y-123000000D01*
%TD*%
M02*
